<svg width="32" height="32" viewBox="0 0 32 32" fill="none" xmlns="http://www.w3.org/2000/svg">
<path d="M16 0C7.175 0 0 7.175 0 16C0 24.825 7.175 32 16 32C24.825 32 32 24.825 32 16C32 7.175 24.825 0 16 0Z" fill="url(#paint0_linear)"/>
<path d="M16.0002 6.00964C11.9043 6.00964 8.01472 5.64557 6.52906 9.45539C5.9154 11.0289 6.00451 13.0725 6.00451 15.9986C6.00451 18.5663 5.92217 20.9795 6.52906 22.5407C8.01133 26.3527 11.9325 25.9875 15.998 25.9875C19.9203 25.9875 23.9643 26.3956 25.4681 22.5407C26.0828 20.9514 25.9926 18.9382 25.9926 15.9986C25.9926 12.0963 26.2081 9.57712 24.314 7.68574C22.3963 5.76955 19.8029 6.00964 15.9957 6.00964H16.0002ZM15.1046 7.80973C23.6485 7.7962 24.7359 6.84713 24.1358 20.0316C23.9226 24.6947 20.3692 24.1829 16.0014 24.1829C8.03728 24.1829 7.80828 23.9553 7.80828 15.9941C7.80828 7.94048 8.43999 7.81423 15.1046 7.80747V7.80973ZM21.336 9.46779C20.6738 9.46779 20.1368 10.0043 20.1368 10.666C20.1368 11.3276 20.6738 11.8641 21.336 11.8641C21.9981 11.8641 22.5351 11.3276 22.5351 10.666C22.5351 10.0043 21.9981 9.46779 21.336 9.46779ZM16.0002 10.8689C13.1654 10.8689 10.8676 13.166 10.8676 15.9986C10.8676 18.8312 13.1654 21.1272 16.0002 21.1272C18.8351 21.1272 21.1318 18.8312 21.1318 15.9986C21.1318 13.166 18.8351 10.8689 16.0002 10.8689ZM16.0002 12.6689C20.4053 12.6689 20.411 19.3282 16.0002 19.3282C11.5963 19.3282 11.5895 12.6689 16.0002 12.6689Z" fill="white"/>
<defs>
<linearGradient id="paint0_linear" x1="2.14853" y1="29.9152" x2="31.7987" y2="4.24828" gradientUnits="userSpaceOnUse">
<stop stop-color="#FFDD55"/>
<stop offset="0.5" stop-color="#FF543E"/>
<stop offset="1" stop-color="#C837AB"/>
</linearGradient>
</defs>
</svg>
