<svg width="32" height="32" viewBox="0 0 32 32" fill="none" xmlns="http://www.w3.org/2000/svg">
<path d="M16 0C7.175 0 0 7.175 0 16C0 24.825 7.175 32 16 32C24.825 32 32 24.825 32 16C32 7.175 24.825 0 16 0Z" fill="#4267B2"/>
<path d="M17.0685 26.6665V16.9353H20.3348L20.8239 13.1429H17.0685V10.7216C17.0685 9.62363 17.3734 8.87531 18.948 8.87531L20.9562 8.87438V5.48252C20.6088 5.43648 19.4167 5.33325 18.0299 5.33325C15.1345 5.33325 13.1523 7.10052 13.1523 10.3462V13.143H9.87744V16.9354H13.1522V26.6666L17.0685 26.6665Z" fill="white"/>
</svg>
