<svg width="32" height="32" viewBox="0 0 32 32" fill="none" xmlns="http://www.w3.org/2000/svg">
<path d="M16 0C7.168 0 0 7.168 0 16C0 24.832 7.168 32 16 32C24.832 32 32 24.832 32 16C32 7.168 24.832 0 16 0Z" fill="#00C3FF"/>
<path d="M25 10.7396C24.3575 11.0757 23.3898 11.231 23.069 11.2758C23.0663 11.2602 23.0637 11.2454 23.061 11.2306C24.1517 10.5559 24.4856 9.2858 24.4856 9.2858C23.8101 9.67196 23.2148 9.8862 22.7663 10.0049C22.5142 10.0725 22.3084 10.1091 22.1604 10.1295C21.4807 9.43246 20.5316 9 19.481 9C17.4139 9 15.7379 10.6756 15.7379 12.7433C15.7379 12.8177 15.7399 12.8917 15.7448 12.9651C15.7547 13.1443 15.7776 13.3204 15.8128 13.4917C14.8123 13.4768 11.2008 13.17 8.20811 9.69367C8.20811 9.69367 6.54161 12.6013 9.34333 14.5875C9.34333 14.5875 8.20811 14.552 7.60549 14.1264C7.60549 14.1264 7.42825 16.9281 10.6551 17.8143C10.6551 17.8143 9.52057 18.0984 8.95274 17.85C8.95274 17.85 9.52035 20.2614 12.3573 20.439C12.3573 20.439 10.3226 22.3018 7 22.0338C8.63415 23.0684 10.5716 23.6672 12.6488 23.6672C18.4896 23.6672 23.2245 18.9325 23.2245 13.0918C23.2245 13.0189 23.2238 12.946 23.2223 12.8731C23.2238 12.8299 23.2245 12.7869 23.2245 12.7433C23.2245 12.7129 23.2238 12.6826 23.2234 12.6522C24.3032 11.9326 25 10.7396 25 10.7396Z" fill="white"/>
</svg>
