<svg width="32" height="32" viewBox="0 0 32 32" fill="none" xmlns="http://www.w3.org/2000/svg">
<path d="M16 0C7.175 0 0 7.175 0 16C0 24.825 7.175 32 16 32C24.825 32 32 24.825 32 16C32 7.175 24.825 0 16 0Z" fill="#22242B"/>
<path fill-rule="evenodd" clip-rule="evenodd" d="M14.3428 13.5462V12.8366C14.0966 12.8018 13.8482 12.7837 13.5995 12.7825C10.5578 12.7825 8.08325 15.2575 8.08325 18.2991C8.08325 20.165 9.01575 21.8166 10.4383 22.8154C9.48577 21.7968 8.95624 20.4541 8.957 19.0596C8.957 16.0612 11.3612 13.6162 14.3428 13.5462Z" fill="#00F2EA"/>
<path fill-rule="evenodd" clip-rule="evenodd" d="M14.4727 21.5786C15.8298 21.5786 16.9369 20.4991 16.9873 19.1536L16.9919 7.14323H19.1861C19.1392 6.89246 19.1155 6.63792 19.1152 6.38281H16.1186L16.1136 18.3936C16.0636 19.7386 14.9561 20.8178 13.5994 20.8178C13.1921 20.818 12.7909 20.7187 12.4307 20.5286C12.6633 20.8532 12.9698 21.1177 13.3249 21.3003C13.68 21.4828 14.0735 21.5783 14.4727 21.5786ZM23.2848 11.2199V10.5524C22.4785 10.5531 21.6894 10.3186 21.0144 9.8774C21.6062 10.5588 22.403 11.0298 23.2852 11.2199" fill="#00F2EA"/>
<path fill-rule="evenodd" clip-rule="evenodd" d="M21.0145 9.87689C20.353 9.12 19.9886 8.14877 19.9891 7.14355H19.1862C19.2901 7.69916 19.5058 8.22788 19.82 8.69771C20.1343 9.16754 20.5407 9.5687 21.0145 9.87689ZM13.5995 15.7794C12.9316 15.7802 12.2913 16.0458 11.819 16.5181C11.3468 16.9904 11.0811 17.6307 11.0803 18.2986C11.0808 18.758 11.2068 19.2086 11.4447 19.6016C11.6826 19.9946 12.0234 20.3152 12.4303 20.5286C12.1205 20.1013 11.9537 19.5871 11.9537 19.0594C11.9543 18.3914 12.2199 17.751 12.6922 17.2787C13.1645 16.8063 13.8049 16.5406 14.4728 16.5398C14.7324 16.5398 14.9812 16.5827 15.2162 16.6565V13.5969C14.9699 13.562 14.7215 13.5439 14.4728 13.5427C14.4291 13.5427 14.3862 13.5452 14.3428 13.5461V15.8961C14.1024 15.8195 13.8518 15.7802 13.5995 15.7794Z" fill="#FF004F"/>
<path fill-rule="evenodd" clip-rule="evenodd" d="M23.2849 11.2199V13.5491C21.7307 13.5491 20.2911 13.052 19.1153 12.2082V18.2986C19.1153 21.3403 16.6411 23.8149 13.5995 23.8149C12.4241 23.8149 11.3341 23.4441 10.4382 22.8149C10.9533 23.3703 11.5775 23.8134 12.2717 24.1163C12.966 24.4192 13.7153 24.5755 14.4728 24.5753C17.5145 24.5753 19.9891 22.1007 19.9891 19.0595V12.9691C21.2038 13.8425 22.6625 14.3116 24.1586 14.3099V11.3124C23.8586 11.3124 23.567 11.2799 23.2849 11.2195" fill="#FF004F"/>
<path fill-rule="evenodd" clip-rule="evenodd" d="M19.1151 18.2986V12.2081C20.3298 13.0817 21.7885 13.5508 23.2847 13.549V11.2198C22.4026 11.0295 21.6059 10.5583 21.0143 9.87689C20.5405 9.5687 20.1341 9.16754 19.8198 8.69771C19.5056 8.22788 19.2899 7.69916 19.186 7.14355H16.9918L16.9872 19.154C16.9368 20.499 15.8297 21.5786 14.4726 21.5786C14.0733 21.5781 13.6799 21.4827 13.3248 21.3001C12.9697 21.1175 12.6632 20.8531 12.4305 20.5286C12.0236 20.3152 11.6827 19.9947 11.4447 19.6017C11.2067 19.2086 11.0806 18.758 11.0801 18.2986C11.0809 17.6307 11.3466 16.9904 11.8188 16.5181C12.2911 16.0458 12.9314 15.7802 13.5993 15.7794C13.8585 15.7794 14.1072 15.8219 14.3426 15.8961V13.5461C11.361 13.6161 8.95679 16.0611 8.95679 19.0594C8.95679 20.5094 9.52012 21.8294 10.438 22.8152C11.3634 23.4666 12.4676 23.8158 13.5993 23.8148C16.641 23.8148 19.1151 21.3402 19.1151 18.2986Z" fill="white"/>
</svg>
