<svg width="32" height="32" viewBox="0 0 32 32" fill="none" xmlns="http://www.w3.org/2000/svg">
<path d="M16 0C7.168 0 0 7.168 0 16C0 24.832 7.168 32 16 32C24.832 32 32 24.832 32 16C32 7.168 24.832 0 16 0Z" fill="#5181B8"/>
<path fill-rule="evenodd" clip-rule="evenodd" d="M26.1771 11.0232C26.3255 10.5287 26.1771 10.1653 25.4713 10.1653H23.1374C22.5439 10.1653 22.2705 10.4792 22.1222 10.8254C22.1222 10.8254 20.9352 13.7183 19.2538 15.5974C18.7099 16.1413 18.4627 16.3142 18.1659 16.3142C18.0175 16.3142 17.8028 16.1414 17.8028 15.6469V11.0232C17.8028 10.4297 17.6306 10.1653 17.136 10.1653H13.4685C13.0977 10.1653 12.8747 10.4407 12.8747 10.7017C12.8747 11.2644 13.7152 11.3941 13.8019 12.9764V16.4134C13.8019 17.1669 13.6659 17.3036 13.3691 17.3036C12.5779 17.3036 10.6535 14.3976 9.51189 11.0727C9.28818 10.4263 9.06379 10.1653 8.46732 10.1653H6.13344C5.46662 10.1653 5.33325 10.4792 5.33325 10.8254C5.33325 11.4436 6.1246 14.5096 9.01745 18.5646C10.9462 21.3336 13.6632 22.8349 16.1358 22.8349C17.6195 22.8349 17.8028 22.5015 17.8028 21.9272V19.8342C17.8028 19.1674 17.9434 19.0344 18.413 19.0344C18.7594 19.0344 19.3527 19.2074 20.7375 20.5425C22.3199 22.1248 22.5806 22.8349 23.4708 22.8349H25.8047C26.4715 22.8349 26.8049 22.5015 26.6126 21.8435C26.4022 21.1877 25.6467 20.2365 24.6441 19.1085C24.1001 18.4656 23.2841 17.7732 23.0371 17.4272C22.6908 16.982 22.7897 16.7843 23.0371 16.3889C23.0371 16.3889 25.8804 12.3833 26.1771 11.0233V11.0232Z" fill="white"/>
</svg>
