<svg width="24" height="16" viewBox="0 0 24 16" fill="none" xmlns="http://www.w3.org/2000/svg">
<path d="M8.26403 14C11.5855 14 14.2781 11.3137 14.2781 8C14.2781 4.68629 11.5855 2 8.26403 2C4.94257 2 2.25 4.68629 2.25 8C2.25 11.3137 4.94257 14 8.26403 14Z" fill="#EE0005"/>
<path d="M15.7355 14C19.0569 14 21.7495 11.3137 21.7495 8C21.7495 4.68629 19.0569 2 15.7355 2C12.414 2 9.72144 4.68629 9.72144 8C9.72144 11.3137 12.414 14 15.7355 14Z" fill="#F9A000"/>
<path d="M9.72144 7.99984C9.72144 9.90496 10.6116 11.6025 11.9994 12.7016C13.3872 11.6025 14.2774 9.90496 14.2774 7.99984C14.2774 6.09472 13.3873 4.39716 11.9994 3.2981C10.6116 4.39725 9.72144 6.09476 9.72144 7.99984Z" fill="#FF6300"/>
</svg>
