<svg width="168" height="84" viewBox="0 0 168 84" fill="none" xmlns="http://www.w3.org/2000/svg">
<mask id="mask0" mask-type="alpha" maskUnits="userSpaceOnUse" x="0" y="0" width="168" height="84">
<rect width="167.192" height="84" rx="4" transform="matrix(1 0 0 -1 0.153809 84)" fill="#C4C4C4"/>
</mask>
<g mask="url(#mask0)">
<path d="M130.223 45.4815C140.317 45.4815 145.364 45.4815 149.521 43.0818C153.677 40.6821 156.2 36.3113 161.247 27.5698L184.193 -12.1725C189.24 -20.9141 191.763 -25.2849 191.763 -30.0843C191.763 -34.8838 189.24 -39.2545 184.193 -47.9961L161.247 -87.7384C156.2 -96.4799 153.677 -100.851 149.521 -103.25C145.364 -105.65 140.317 -105.65 130.223 -105.65L84.3328 -105.65C74.239 -105.65 69.192 -105.65 65.0356 -103.25C60.8791 -100.851 58.3557 -96.48 53.3087 -87.7384L30.3635 -47.9961C25.3166 -39.2545 22.7931 -34.8838 22.7931 -30.0843C22.7931 -25.2849 25.3166 -20.9141 30.3635 -12.1725L53.3087 27.5698C58.3557 36.3113 60.8791 40.6821 65.0356 43.0818C69.192 45.4815 74.239 45.4815 84.3328 45.4815L130.223 45.4815Z" fill="url(#paint0_linear)"/>
<path d="M136.531 47.2437C150.32 71.1261 157.214 83.0673 167.555 83.0673C177.897 83.0673 184.791 71.1261 198.58 47.2437L212.097 23.8305C225.886 -0.0519028 232.78 -11.9931 227.609 -20.949C222.439 -29.9049 208.65 -29.9049 181.073 -29.9049H154.038C126.461 -29.9049 112.672 -29.9049 107.502 -20.949C102.331 -11.9931 109.225 -0.0519104 123.014 23.8305L136.531 47.2437Z" fill="url(#paint1_linear)"/>
</g>
<defs>
<linearGradient id="paint0_linear" x1="84.0634" y1="80.8255" x2="124.647" y2="-142.095" gradientUnits="userSpaceOnUse">
<stop stop-color="#E7ECF4"/>
<stop offset="1" stop-color="white"/>
</linearGradient>
<linearGradient id="paint1_linear" x1="229.326" y1="-29.9049" x2="104.927" y2="-28.9522" gradientUnits="userSpaceOnUse">
<stop stop-color="#0E8BFF"/>
<stop offset="1" stop-color="#64BEFF"/>
</linearGradient>
</defs>
</svg>
