<svg width="106" height="24" viewBox="0 0 106 24" fill="none" xmlns="http://www.w3.org/2000/svg">
<path d="M8.24128 1.04675C9.44905 0.348915 10.0529 0 10.716 0C11.3792 0 11.983 0.348915 13.1908 1.04675L18.9573 4.37855C20.1651 5.07638 20.769 5.4253 21.1005 6C21.4321 6.5747 21.4321 7.27253 21.4321 8.66819V15.3318C21.4321 16.7275 21.4321 17.4253 21.1005 18C20.769 18.5747 20.1651 18.9236 18.9573 19.6214L13.1908 22.9533C11.983 23.6511 11.3792 24 10.716 24C10.0529 24 9.44905 23.6511 8.24128 22.9533L2.47477 19.6214C1.267 18.9236 0.663111 18.5747 0.331556 18C4.71567e-08 17.4253 0 16.7275 0 15.3318V8.66819C0 7.27253 4.71567e-08 6.5747 0.331556 6C0.663111 5.4253 1.267 5.07638 2.47477 4.37855L8.24128 1.04675Z" fill="url(#paint0_radial)"/>
<path d="M10.716 19.4075C14.807 19.4075 18.1235 16.0911 18.1235 12.0001C18.1235 7.90906 14.807 4.59265 10.716 4.59265C6.62501 4.59265 3.30859 7.90906 3.30859 12.0001C3.30859 16.0911 6.62501 19.4075 10.716 19.4075Z" fill="url(#paint1_linear)"/>
<path d="M10.7159 15.7039C12.7614 15.7039 14.4197 14.0457 14.4197 12.0002C14.4197 9.95462 12.7614 8.29639 10.7159 8.29639C8.67042 8.29639 7.01221 9.95462 7.01221 12.0002C7.01221 14.0457 8.67042 15.7039 10.7159 15.7039Z" fill="white"/>
<path fill-rule="evenodd" clip-rule="evenodd" d="M53.3178 4.57507C49.2213 4.57507 45.9012 7.89512 45.9012 11.9917C45.9012 16.0882 49.2213 19.4082 53.3178 19.4082C57.4144 19.4082 60.7344 16.0882 60.7344 11.9917C60.7344 7.89512 57.4144 4.57507 53.3178 4.57507ZM53.3178 16.6968C50.7197 16.6968 48.6127 14.5898 48.6127 11.9917C48.6127 9.39354 50.7197 7.28651 53.3178 7.28651C55.9159 7.28651 58.023 9.39354 58.023 11.9917C58.023 14.5898 55.9159 16.6968 53.3178 16.6968Z" fill="#22242B"/>
<path fill-rule="evenodd" clip-rule="evenodd" d="M65.065 19.1186C65.0021 19.0556 65.0021 18.9507 65.0021 18.745V5.30118C65.0021 5.09552 65.0021 4.99058 65.065 4.92763C65.128 4.86467 65.2329 4.86467 65.4386 4.86467H67.7933C67.9234 4.86467 67.9863 4.86467 68.0367 4.89405C68.0871 4.92343 68.1206 4.98219 68.1794 5.09552L71.7093 11.8195C71.7219 11.8405 71.7429 11.8573 71.7681 11.8573C71.7933 11.8573 71.8185 11.8447 71.8268 11.8195L75.3148 5.09971C75.3735 4.98639 75.4029 4.92763 75.4575 4.89405C75.5079 4.86047 75.575 4.86047 75.7051 4.86047H77.9381C78.1437 4.86047 78.2487 4.86047 78.3116 4.92343C78.3746 4.98639 78.3746 5.09132 78.3746 5.29699V18.7408C78.3746 18.9465 78.3746 19.0514 78.3116 19.1144C78.2487 19.1774 78.1437 19.1774 77.9381 19.1774H76.2466C76.0409 19.1774 75.9402 19.1774 75.873 19.1144C75.8101 19.0514 75.8101 18.9465 75.8101 18.7408V8.95281C75.8101 8.92343 75.7891 8.90244 75.7597 8.90244C75.7387 8.90244 75.7219 8.91504 75.7135 8.93183L74.618 11.1816L72.0703 15.8867C71.9024 16.1973 71.8185 16.3568 71.6883 16.3568C71.5582 16.3568 71.4743 16.2015 71.3064 15.8867L68.7586 11.1816L67.6631 8.93183C67.6548 8.91504 67.638 8.90244 67.617 8.90244C67.5876 8.90244 67.5666 8.92343 67.5666 8.95281V18.7408C67.5666 18.9465 67.5666 19.0514 67.5036 19.1144C67.4407 19.1774 67.3358 19.1774 67.1301 19.1774H65.4386C65.2329 19.1816 65.1322 19.1816 65.065 19.1186Z" fill="#22242B"/>
<path fill-rule="evenodd" clip-rule="evenodd" d="M87.4409 19.1689C87.6466 19.1689 87.7473 19.1689 87.8145 19.106C87.8775 19.043 87.8775 18.9381 87.8775 18.7324V5.28856C87.8775 5.0829 87.8775 4.97797 87.8145 4.91501C87.7515 4.85205 87.6466 4.85205 87.4409 4.85205H85.6067C85.4011 4.85205 85.3003 4.85205 85.2332 4.91501C85.166 4.97797 85.1702 5.0829 85.1702 5.28856V18.7324C85.1702 18.9381 85.1702 19.043 85.2332 19.106C85.2961 19.1689 85.4011 19.1689 85.6067 19.1689H87.4409Z" fill="#22242B"/>
<path fill-rule="evenodd" clip-rule="evenodd" d="M105.782 18.5855L101.316 5.14578C101.27 5.00307 101.245 4.92752 101.186 4.88975C101.128 4.84777 101.052 4.84778 100.901 4.84778H98.1644C98.0133 4.84778 97.9377 4.84777 97.879 4.88975C97.8202 4.93172 97.7992 5.00307 97.7488 5.14578L93.241 18.5896C93.1529 18.8541 93.1109 18.9842 93.1738 19.0723C93.241 19.1647 93.3795 19.1647 93.6523 19.1647H95.4739C95.6292 19.1647 95.7048 19.1647 95.7635 19.1227C95.8223 19.0807 95.8433 19.0052 95.8895 18.8583L96.8254 15.8236C96.8716 15.6767 96.8926 15.6012 96.9514 15.5592C97.0101 15.5172 97.0857 15.5172 97.241 15.5172H101.686C101.841 15.5172 101.917 15.5172 101.975 15.5592C102.034 15.6012 102.055 15.6767 102.101 15.8236L103.058 18.8625C103.105 19.0094 103.13 19.0849 103.184 19.1269C103.243 19.1689 103.319 19.1689 103.474 19.1689H105.358C105.635 19.1689 105.774 19.1689 105.837 19.0765C105.912 18.98 105.87 18.8499 105.782 18.5855ZM101.237 13.1038C101.17 13.192 101.035 13.192 100.762 13.192H98.177C97.9041 13.192 97.7698 13.192 97.7069 13.1038C97.6397 13.0157 97.6817 12.8856 97.7614 12.6253L99.3941 7.35354C99.4025 7.32416 99.4319 7.30318 99.4613 7.30318C99.4907 7.30318 99.5201 7.32416 99.5285 7.35354L101.182 12.6253C101.262 12.8856 101.304 13.0157 101.237 13.1038Z" fill="#22242B"/>
<path fill-rule="evenodd" clip-rule="evenodd" d="M38.6184 19.1648C38.568 19.1355 38.5386 19.0851 38.4757 18.9802L34.2952 11.8532L32.8303 8.9025C32.8219 8.88991 32.8094 8.88152 32.7968 8.88152C32.7758 8.88152 32.759 8.89831 32.759 8.91929V18.7619C32.759 18.9676 32.759 19.0725 32.696 19.1355C32.6331 19.1984 32.5281 19.1984 32.3225 19.1984H30.631C30.4253 19.1984 30.3204 19.1984 30.2574 19.1355C30.1945 19.0725 30.1945 18.9676 30.1945 18.7619V5.31803C30.1945 5.11237 30.1945 5.00744 30.2574 4.94448C30.3204 4.88152 30.4253 4.88151 30.631 4.88151H32.9185C33.0402 4.88151 33.1032 4.88152 33.1535 4.9109C33.2039 4.94028 33.2333 4.99065 33.2962 5.09558L37.4767 12.2225L38.9416 15.1732C38.95 15.1858 38.9625 15.1942 38.9751 15.1942C38.9961 15.1942 39.0129 15.1774 39.0129 15.1564V5.31384C39.0129 5.10817 39.0129 5.00323 39.0759 4.94028C39.1388 4.87732 39.2438 4.87732 39.4494 4.87732H41.1409C41.3466 4.87732 41.4515 4.87732 41.5145 4.94028C41.5774 5.00323 41.5774 5.10817 41.5774 5.31384V18.7577C41.5774 18.9634 41.5774 19.0683 41.5145 19.1313C41.4515 19.1942 41.3466 19.1942 41.1409 19.1942H38.8534C38.7275 19.1942 38.6687 19.1942 38.6184 19.1648Z" fill="#22242B"/>
<defs>
<radialGradient id="paint0_radial" cx="0" cy="0" r="1" gradientUnits="userSpaceOnUse" gradientTransform="translate(21.4648 24.0771) rotate(-131.76) scale(32.2777 26.1602)">
<stop stop-color="#22242B"/>
<stop offset="1" stop-color="#343845"/>
</radialGradient>
<linearGradient id="paint1_linear" x1="18.1235" y1="19.4075" x2="3.30864" y2="4.59261" gradientUnits="userSpaceOnUse">
<stop offset="0.151038" stop-color="#0E8BFF"/>
<stop offset="0.851811" stop-color="#64BEFF"/>
</linearGradient>
</defs>
</svg>
