<svg width="15" height="13" viewBox="0 0 15 13" fill="none" xmlns="http://www.w3.org/2000/svg">
<path d="M8.9564 10.7183L3.6426 8.41966L2.50838 10.3743L8.4857 11.5236L8.94884 10.7202L8.9564 10.7183ZM8.21726 12.9981H9.98475L11.5367 10.31L13.0944 13H14.8619L11.5424 7.25142L8.21726 13V12.9981ZM2.25129 10.8318L0.996094 13H7.63693L8.22483 11.9811L2.24751 10.8318H2.25129ZM11.2475 6.74858L7.92804 0.996216L6.66717 3.17202L10.652 7.77315L11.2418 6.75236L11.2475 6.74858ZM10.395 8.22684L6.40819 3.62949L5.27398 5.58223L9.92237 9.03402L10.3874 8.23062L10.395 8.22684ZM9.67851 9.46502L5.03012 6.01512L3.8959 7.98109L9.2097 10.2817L9.6804 9.46502H9.67851Z" fill="#F8AD00"/>
</svg>
