<svg width="24" height="24" viewBox="0 0 24 24" fill="none" xmlns="http://www.w3.org/2000/svg">
<path fill-rule="evenodd" clip-rule="evenodd" d="M0 12C0 5.38125 5.38125 0 12 0C18.6187 0 24 5.38125 24 12C24 18.6187 18.6187 24 12 24C5.38125 24 0 18.6187 0 12ZM15.8212 17.5403C15.8212 17.5403 15.5067 18.3091 14.6679 17.9422L11.5226 15.5307L9.49559 17.3655C9.49559 17.3655 9.33832 17.4878 9.16358 17.4179C9.16358 17.4179 9.00631 17.4005 8.83157 16.8238C8.63936 16.2297 7.69576 13.1368 7.69576 13.1368L4.5679 12.0883C4.5679 12.0883 4.0961 11.9136 4.04368 11.5466C3.99126 11.1797 4.58538 10.97 4.58538 10.97L17.0094 6.09474C17.0094 6.09474 18.0229 5.64041 18.0404 6.3918L15.8212 17.5403Z" fill="#9199A5"/>
</svg>
